<svg width="334" height="118" viewBox="0 0 334 118" fill="none" xmlns="http://www.w3.org/2000/svg">
<g clip-path="url(#clip0_30_175)">
<rect width="334" height="118" rx="30" fill="#42C83C"/>
<path fill-rule="evenodd" clip-rule="evenodd" d="M334.516 -61.6635C327.755 -54.9191 319.36 -45.6737 316.702 -35.1802C315.871 -31.901 315.6 -28.4986 316.113 -25.0129C315.553 -22.5455 315.316 -20.0106 315.496 -17.4251C315.429 -17.1865 315.365 -16.9472 315.304 -16.7073C314.832 -14.8432 314.541 -12.9393 314.472 -11.0028C314.153 -10.0971 313.873 -9.18081 313.639 -8.25481C313.569 -7.97766 313.502 -7.69964 313.44 -7.42076C307.277 -0.994805 300.58 7.21779 298.258 16.3824C296.927 21.6383 297.033 27.211 299.503 32.9354C301.972 38.6571 306.794 44.5081 314.854 50.338C333.631 63.9195 351.102 64.6009 364.506 65.1236C365.751 65.1721 366.96 65.2193 368.133 65.2753C375.053 65.606 380.594 66.2445 384.45 69.1875C388.286 72.115 390.528 77.3906 390.641 87.1987L391.23 87.2126C391.117 77.3553 388.866 71.8574 384.812 68.763C380.778 65.684 375.033 65.052 368.142 64.7227C366.967 64.6666 365.757 64.6193 364.513 64.5706C351.115 64.0468 333.821 63.3705 315.202 49.904C307.206 44.1198 302.466 38.3467 300.048 32.7435C297.631 27.1429 297.524 21.69 298.831 16.5287C301.038 7.81849 307.27 -0.0502673 313.223 -6.34749L313.217 -6.31736C313.066 -5.98484 312.919 -5.65068 312.777 -5.31491C308.671 -0.207536 305.04 5.61082 303.454 11.8738C302.122 17.1297 302.228 22.7024 304.699 28.4267C307.168 34.1484 311.989 39.9994 320.049 45.8293C338.827 59.4109 356.298 60.0922 369.701 60.615C370.946 60.6635 372.156 60.7107 373.328 60.7667C380.248 61.0973 385.79 61.7358 389.646 64.6788C393.481 67.6064 395.724 72.8819 395.837 82.6901L396.426 82.704C396.312 72.8467 394.061 67.3488 390.007 64.2544C385.973 61.1754 380.229 60.5433 373.337 60.2141C372.163 60.158 370.953 60.1106 369.709 60.062C356.311 59.5381 339.016 58.8619 320.398 45.3954C312.401 39.6112 307.661 33.8381 305.243 28.2349C302.826 22.6343 302.719 17.1814 304.027 12.0201C305.326 6.8944 308.018 2.06012 311.227 -2.33401C309.732 0.396816 308.527 3.25478 307.778 6.21189C306.447 11.4678 306.553 17.0405 309.023 22.7648C311.492 28.4865 316.314 34.3375 324.374 40.1674C343.151 53.749 360.622 54.4303 374.026 54.9531L374.027 54.9531L374.027 54.9531L374.032 54.9533L374.035 54.9534C375.277 55.0019 376.483 55.0489 377.653 55.1048C384.573 55.4354 390.114 56.0739 393.97 59.0169C397.806 61.9445 400.048 67.22 400.161 77.0282L400.75 77.0421C400.637 67.1848 398.386 61.6869 394.332 58.5925C390.298 55.5135 384.553 54.8814 377.662 54.5522C376.487 54.4961 375.277 54.4487 374.033 54.4001C360.635 53.8762 343.341 53.2 324.723 39.7335C316.726 33.9493 311.986 28.1762 309.568 22.573C307.151 16.9724 307.044 11.5195 308.351 6.3582C309.027 3.69017 310.081 1.1011 311.389 -1.38804C311.31 -1.10971 311.234 -0.830471 311.163 -0.550343C309.832 4.70553 309.938 10.2783 312.408 16.0026C314.878 21.7243 319.699 27.5753 327.759 33.4052C346.536 46.9868 364.007 47.6681 377.411 48.1908L377.413 48.1909C378.657 48.2394 379.866 48.2866 381.038 48.3426C387.958 48.6732 393.5 49.3117 397.356 52.2547C401.191 55.1823 403.434 60.4578 403.547 70.2659L404.136 70.2799C404.022 60.4225 401.771 54.9247 397.717 51.8302C393.683 48.7513 387.939 48.1192 381.047 47.7899C379.872 47.7338 378.662 47.6865 377.419 47.6379C364.021 47.114 346.726 46.4378 328.108 32.9713C320.111 27.1871 315.371 21.414 312.953 15.8107C310.536 10.2102 310.429 4.75723 311.737 -0.404034C312.049 -1.63723 312.442 -2.85355 312.904 -4.05095C312.526 -0.0611734 313.062 4.07727 314.884 8.29815C317.353 14.0198 322.174 19.8708 330.234 25.7007C349.012 39.2823 366.483 39.9636 379.887 40.4864C381.131 40.5349 382.341 40.5821 383.513 40.6381C390.434 40.9687 395.975 41.6072 399.831 44.5503C403.666 47.4778 405.909 52.7533 406.022 62.5615L406.611 62.5754C406.497 52.7181 404.246 47.2202 400.192 44.1258C396.158 41.0468 390.414 40.4147 383.522 40.0855C382.348 40.0294 381.138 39.982 379.894 39.9334C366.496 39.4096 349.201 38.7333 330.583 25.2668C322.586 19.4826 317.847 13.7095 315.428 8.10627C313.458 3.54022 313.023 -0.927705 313.638 -5.21945C313.889 -5.60671 314.144 -5.99103 314.405 -6.37233C314.5 -6.48578 314.596 -6.59888 314.691 -6.71159C314.993 -4.55483 315.595 -2.36592 316.549 -0.154374C319.019 5.56731 323.84 11.4183 331.9 17.2482C350.677 30.8298 368.148 31.5111 381.552 32.0339C382.797 32.0824 384.007 32.1296 385.179 32.1856C392.099 32.5162 397.641 33.1547 401.497 36.0977C405.332 39.0253 407.575 44.3008 407.688 54.109L408.277 54.1229C408.163 44.2656 405.912 38.7677 401.858 35.6733C397.824 32.5943 392.08 31.9622 385.188 31.633C384.013 31.5768 382.803 31.5295 381.56 31.4809C368.162 30.957 350.867 30.2808 332.249 16.8143C324.252 11.0301 319.512 5.25697 317.094 -0.346245C316.079 -2.69739 315.472 -5.02251 315.205 -7.31096C315.906 -8.12082 316.613 -8.91048 317.32 -9.67874C317.388 -9.51162 317.458 -9.34437 317.531 -9.17699C320 -3.45531 324.821 2.39571 332.881 8.22558C351.658 21.8072 369.13 22.4885 382.533 23.0112L382.536 23.0113L382.539 23.0114L382.544 23.0116L382.549 23.0118C383.789 23.0602 384.993 23.1072 386.16 23.163C393.08 23.4936 398.622 24.1321 402.478 27.0751C406.313 30.0027 408.556 35.2782 408.669 45.0864L409.258 45.1003C409.144 35.2429 406.893 29.7451 402.839 26.6506C398.805 23.5717 393.061 22.9396 386.169 22.6103C384.995 22.5542 383.784 22.5069 382.541 22.4583C369.143 21.9344 351.848 21.2582 333.23 7.79167C325.233 2.00747 320.493 -3.76565 318.075 -9.36887C317.963 -9.62873 317.856 -9.88828 317.754 -10.1475C318.804 -11.2761 319.85 -12.3569 320.87 -13.3859C323.641 -9.35581 327.684 -5.2851 333.298 -1.22464C352.075 12.357 369.546 13.0383 382.95 13.561C384.194 13.6096 385.404 13.6567 386.576 13.7127C393.497 14.0434 399.038 14.6819 402.894 17.6249C406.729 20.5524 408.972 25.828 409.085 35.6361L409.674 35.65C409.56 25.7927 407.309 20.2948 403.255 17.2004C399.221 14.1214 393.477 13.4894 386.585 13.1601C385.411 13.104 384.201 13.0567 382.957 13.0081C369.559 12.4842 352.264 11.8079 333.646 -1.65856C328.019 -5.72842 324.005 -9.79279 321.278 -13.7964L321.462 -13.9815L321.704 -14.2225L321.268 -14.6095C321.162 -14.5035 321.055 -14.3968 320.948 -14.2895C320.912 -14.3451 320.875 -14.4008 320.839 -14.4564C322.59 -16.4006 324.356 -18.2161 326.028 -19.8844L325.593 -20.2714C323.961 -18.6435 322.233 -16.8698 320.515 -14.9681C320.295 -15.3212 320.086 -15.6738 319.886 -16.0258C322.924 -19.9898 326.328 -23.5687 329.413 -26.6467L328.978 -27.0336C325.951 -24.0143 322.597 -20.4938 319.577 -16.5844C319.251 -17.1866 318.954 -17.7872 318.683 -18.3859C322.399 -24.5081 327.47 -29.9434 331.889 -34.3511L331.453 -34.7381C327.126 -30.4215 322.129 -25.0804 318.396 -19.0433C318.063 -19.8344 317.776 -20.6225 317.532 -21.4072C321.101 -29.7571 327.868 -37.1312 333.554 -42.8037L333.119 -43.1906C327.585 -37.6707 320.957 -30.4754 317.276 -22.2917C317.033 -23.1904 316.846 -24.0844 316.711 -24.9732C316.758 -25.1771 316.807 -25.3806 316.859 -25.5836C319.479 -35.9244 327.772 -45.0791 334.536 -51.8263L334.1 -52.2133C327.528 -45.657 319.411 -36.7372 316.521 -26.6049C316.287 -29.4822 316.582 -32.299 317.275 -35.0339C319.895 -45.3746 328.188 -54.5293 334.952 -61.2765L334.516 -61.6635ZM314.565 -7.74686C314.494 -7.60931 314.425 -7.47146 314.356 -7.33332C314.43 -7.43873 314.504 -7.5439 314.579 -7.64881L314.569 -7.75086L314.565 -7.74686ZM316.271 -9.92485C316.483 -10.1987 316.697 -10.4707 316.912 -10.7407C316.829 -10.9724 316.75 -11.2039 316.674 -11.435C316.291 -10.8284 315.922 -10.2149 315.567 -9.5946C315.736 -9.76488 315.905 -9.93365 316.073 -10.1009L316.271 -9.92485ZM320.538 -13.8775C319.927 -13.2614 319.304 -12.6257 318.676 -11.9715C319.261 -12.6676 319.852 -13.3497 320.446 -14.0171L320.506 -13.9258L320.538 -13.8775ZM320.118 -14.5269C319.907 -14.8621 319.705 -15.197 319.511 -15.5316C318.664 -14.4072 317.85 -13.2528 317.081 -12.0708C317.162 -11.8048 317.248 -11.5384 317.34 -11.2716C318.25 -12.3925 319.182 -13.4786 320.118 -14.5269ZM314.411 -8.72306L314.337 -8.58501C314.382 -8.75153 314.429 -8.91774 314.477 -9.08364C314.48 -9.0107 314.483 -8.93772 314.487 -8.8647L314.411 -8.72306ZM316.445 -12.1698C315.959 -11.4141 315.491 -10.6469 315.045 -9.86909C315.042 -10.2091 315.046 -10.5482 315.057 -10.8863C315.368 -11.7613 315.716 -12.6266 316.097 -13.4815C316.2 -13.0454 316.316 -12.6081 316.445 -12.1698ZM319.196 -16.0872C318.389 -15.0235 317.608 -13.9319 316.867 -12.8145C316.726 -13.331 316.605 -13.846 316.501 -14.3594C317.054 -15.5232 317.666 -16.6667 318.326 -17.7878C318.592 -17.2221 318.882 -16.6552 319.196 -16.0872ZM318.028 -18.4399C318.001 -18.5023 317.974 -18.5648 317.947 -18.6272C317.665 -19.2809 317.413 -19.9326 317.192 -20.5821C316.768 -19.5202 316.398 -18.4431 316.09 -17.3523C316.139 -16.6851 316.216 -16.0146 316.323 -15.341C316.849 -16.392 317.42 -17.4255 318.028 -18.4399ZM315.889 -14.4449C315.806 -14.8681 315.735 -15.2901 315.676 -15.7109C315.471 -14.7852 315.312 -13.8505 315.205 -12.9075C315.421 -13.4238 315.649 -13.9363 315.889 -14.4449ZM316.911 -21.4545C316.588 -20.689 316.292 -19.9151 316.026 -19.1334C316.027 -20.583 316.158 -22.0157 316.4 -23.4287C316.541 -22.7732 316.711 -22.1151 316.911 -21.4545ZM292.347 19.8258C295.006 9.33223 303.401 0.0868259 310.162 -6.65754L310.597 -6.27056C303.833 0.476598 295.54 9.63133 292.92 19.9721C291.613 25.1333 291.72 30.5863 294.137 36.1868C296.555 41.7901 301.295 47.5632 309.292 53.3474C327.91 66.8139 345.204 67.4901 358.602 68.014C359.846 68.0626 361.056 68.1099 362.231 68.166C369.122 68.4953 374.867 69.1274 378.901 72.2064C382.955 75.3008 385.206 80.7986 385.319 90.656L384.731 90.642C384.617 80.8339 382.375 75.5584 378.539 72.6308C374.684 69.6878 369.142 69.0493 362.222 68.7187C361.049 68.6627 359.84 68.6155 358.595 68.5669C345.191 68.0442 327.72 67.3629 308.943 53.7813C300.883 47.9514 296.061 42.1004 293.592 36.3787C291.122 30.6544 291.016 25.0816 292.347 19.8258ZM303.726 -4.08031C296.965 2.66406 288.57 11.9095 285.912 22.403C284.58 27.6589 284.686 33.2316 287.156 38.9559C289.626 44.6776 294.447 50.5287 302.507 56.3585C321.284 69.9401 338.755 70.6214 352.159 71.1442L352.159 71.1442C353.404 71.1927 354.614 71.2399 355.786 71.2959C362.706 71.6265 368.248 72.265 372.104 75.208C375.939 78.1356 378.182 83.4111 378.295 93.2193L378.884 93.2332C378.77 83.3759 376.519 77.878 372.465 74.7836C368.431 71.7046 362.687 71.0725 355.795 70.7433C354.621 70.6872 353.41 70.6398 352.167 70.5912C338.769 70.0674 321.474 69.3911 302.856 55.9246C294.859 50.1404 290.119 44.3673 287.701 38.7641C285.284 33.1635 285.177 27.7106 286.485 22.5493C289.105 12.2086 297.398 3.05383 304.162 -3.69333L303.726 -4.08031ZM279.127 24.3579C281.786 13.8644 290.181 4.61897 296.942 -2.1254L297.377 -1.73842C290.613 5.00874 282.32 14.1635 279.7 24.5042C278.393 29.6655 278.5 35.1184 280.917 40.719C283.335 46.3222 288.075 52.0953 296.071 57.8795C314.689 71.346 331.984 72.0223 345.382 72.5461C346.626 72.5948 347.836 72.6421 349.01 72.6982C355.902 73.0274 361.647 73.6595 365.681 76.7385C369.735 79.8329 371.986 85.3308 372.099 95.1881L371.51 95.1742C371.397 85.3661 369.155 80.0905 365.319 77.163C361.463 74.2199 355.922 73.5814 349.002 73.2508C347.829 73.1948 346.62 73.1476 345.375 73.0991C331.971 72.5764 314.5 71.895 295.723 58.3134C287.663 52.4836 282.841 46.6325 280.372 40.9109C277.902 35.1865 277.795 29.6138 279.127 24.3579ZM289.952 -0.557702C283.191 6.18667 274.796 15.4321 272.138 25.9256C270.806 31.1815 270.912 36.7542 273.383 42.4786C275.852 48.2002 280.673 54.0513 288.734 59.8811C307.511 73.4627 324.982 74.1441 338.386 74.6668C339.63 74.7153 340.84 74.7625 342.012 74.8185C348.933 75.1491 354.474 75.7876 358.33 78.7307C362.165 81.6582 364.408 86.9337 364.521 96.7419L365.11 96.7558C364.996 86.8985 362.745 81.4006 358.691 78.3062C354.657 75.2272 348.913 74.5951 342.021 74.2659C340.847 74.2098 339.637 74.1625 338.393 74.1138C324.995 73.59 307.7 72.9137 289.082 59.4472C281.085 53.663 276.346 47.8899 273.927 42.2867C271.511 36.6861 271.403 31.2332 272.711 26.0719C275.331 15.7312 283.624 6.57644 290.388 -0.17072L289.952 -0.557702ZM265.051 27.3041C267.71 16.8106 276.105 7.56518 282.866 0.820812L283.301 1.20779C276.538 7.95495 268.244 17.1097 265.625 27.4504C264.317 32.6117 264.424 38.0646 266.841 43.6652C269.259 49.2684 273.999 55.0415 281.996 60.8257C300.614 74.2922 317.909 74.9685 331.307 75.4923C332.55 75.541 333.76 75.5883 334.935 75.6444C341.827 75.9737 347.571 76.6057 351.605 79.6847C355.659 82.7791 357.91 88.277 358.024 98.1343L357.435 98.1204C357.322 88.3123 355.079 83.0367 351.243 80.1092C347.388 77.1662 341.846 76.5276 334.926 76.197C333.754 76.141 332.544 76.0938 331.299 76.0453C317.895 75.5226 300.424 74.8412 281.647 61.2597C273.587 55.4298 268.765 49.5788 266.296 43.8571C263.826 38.1327 263.72 32.56 265.051 27.3041ZM275.764 2.16757C269.003 8.91193 260.608 18.1573 257.95 28.6509C256.618 33.9067 256.724 39.4795 259.195 45.2038C261.664 50.9255 266.485 56.7765 274.545 62.6064C293.323 76.188 310.794 76.8693 324.198 77.3921C325.442 77.4406 326.652 77.4878 327.824 77.5438C334.744 77.8744 340.286 78.5129 344.142 81.4559C347.977 84.3835 350.22 89.659 350.333 99.4672L350.922 99.4811C350.808 89.6238 348.557 84.1259 344.503 81.0315C340.469 77.9525 334.725 77.3204 327.833 76.9911C326.659 76.935 325.449 76.8877 324.205 76.8391C310.807 76.3152 293.512 75.639 274.894 62.1725C266.897 56.3883 262.158 50.6152 259.739 45.0119C257.323 39.4114 257.215 33.9584 258.523 28.7972C261.143 18.4564 269.436 9.3017 276.2 2.55455L275.764 2.16757ZM250.891 30.084C253.549 19.5904 261.944 10.345 268.705 3.60068L269.141 3.98766C262.377 10.7348 254.084 19.8896 251.464 30.2303C250.156 35.3916 250.264 40.8445 252.68 46.4451C255.099 52.0483 259.838 57.8214 267.835 63.6056C286.453 77.0721 303.748 77.7483 317.146 78.2722C318.39 78.3208 319.6 78.3682 320.774 78.4243C327.666 78.7535 333.41 79.3856 337.444 82.4646C341.498 85.559 343.749 91.0569 343.863 100.914L343.274 100.9C343.161 91.0921 340.918 85.8166 337.083 82.889C333.227 79.946 327.686 79.3075 320.765 78.9769C319.593 78.9209 318.383 78.8737 317.139 78.8252C303.735 78.3024 286.264 77.6211 267.487 64.0395C259.426 58.2096 254.605 52.3586 252.136 46.6369C249.665 40.9126 249.559 35.3399 250.891 30.084ZM261.736 5.20689C254.975 11.9513 246.58 21.1967 243.921 31.6902C242.59 36.9461 242.696 42.5188 245.166 48.2431C247.636 53.9648 252.457 59.8158 260.517 65.6457C279.294 79.2273 296.765 79.9086 310.169 80.4314L310.169 80.4314C311.414 80.4799 312.624 80.5271 313.796 80.5831C320.716 80.9137 326.258 81.5522 330.114 84.4953C333.949 87.4228 336.192 92.6983 336.305 102.506L336.894 102.52C336.78 92.6631 334.529 87.1652 330.475 84.0708C326.441 80.9918 320.697 80.3597 313.805 80.0305C312.63 79.9744 311.42 79.927 310.177 79.8784C296.779 79.3546 279.484 78.6783 260.866 65.2118C252.869 59.4276 248.129 53.6545 245.711 48.0513C243.294 42.4507 243.187 36.9978 244.495 31.8365C247.115 21.4958 255.408 12.341 262.171 5.59387L261.736 5.20689ZM237.075 33.5295C239.734 23.036 248.129 13.7906 254.89 7.04624L255.325 7.43322C248.562 14.1804 240.268 23.3351 237.649 33.6759C236.341 38.8371 236.448 44.2901 238.865 49.8906C241.283 55.4938 246.023 61.267 254.02 67.0512C272.638 80.5177 289.933 81.1939 303.33 81.7178C304.574 81.7664 305.784 81.8137 306.959 81.8698C313.85 82.1991 319.595 82.8312 323.629 85.9101C327.683 89.0046 329.934 94.5024 330.048 104.36L329.459 104.346C329.346 94.5377 327.103 89.2622 323.267 86.3346C319.412 83.3916 313.87 82.7531 306.95 82.4225C305.778 82.3664 304.568 82.3193 303.323 82.2707L303.323 82.2707C289.919 81.748 272.448 81.0667 253.671 67.4851C245.611 61.6552 240.789 55.8042 238.32 50.0825C235.85 44.3582 235.744 38.7854 237.075 33.5295ZM248.191 9.15866C241.43 15.903 233.035 25.1484 230.377 35.642C229.045 40.8978 229.151 46.4706 231.622 52.1949C234.091 57.9166 238.912 63.7676 246.972 69.5975C265.749 83.1791 283.221 83.8604 296.624 84.3832L296.624 84.3831L296.624 84.3831C297.869 84.4317 299.079 84.4789 300.251 84.5349C307.171 84.8655 312.713 85.504 316.569 88.447C320.404 91.3746 322.647 96.6501 322.76 106.458L323.349 106.472C323.235 96.6148 320.984 91.117 316.93 88.0226C312.896 84.9436 307.152 84.3115 300.26 83.9822C299.086 83.9261 297.875 83.8788 296.632 83.8302C283.234 83.3063 265.939 82.6301 247.321 69.1636C239.324 63.3794 234.584 57.6063 232.166 52.003C229.749 46.4025 229.642 40.9495 230.95 35.7883C233.57 25.4475 241.863 16.2928 248.627 9.54564L248.191 9.15866Z" fill="url(#paint0_radial_30_175)" fill-opacity="0.58"/>
<path d="M21.34 17.16L20.32 23H19.42L20.65 16H21.91L23.96 21.88L25 16H25.9L24.67 23H23.43L21.34 17.16ZM28.6315 23.12C28.1915 23.12 27.8015 23.0267 27.4615 22.84C27.1282 22.6467 26.8648 22.3733 26.6715 22.02C26.4848 21.66 26.3915 21.2367 26.3915 20.75C26.3915 20.1967 26.5048 19.6867 26.7315 19.22C26.9648 18.7533 27.2915 18.38 27.7115 18.1C28.1382 17.82 28.6348 17.68 29.2015 17.68C29.5882 17.68 29.9148 17.7533 30.1815 17.9C30.4548 18.0467 30.6648 18.2367 30.8115 18.47C30.9582 18.7033 31.0315 18.9533 31.0315 19.22C31.0315 19.5867 30.9448 19.89 30.7715 20.13C30.5982 20.37 30.3748 20.5567 30.1015 20.69C29.8282 20.8167 29.5315 20.9067 29.2115 20.96C28.8982 21.0133 28.5982 21.04 28.3115 21.04C28.1315 21.04 27.9515 21.0333 27.7715 21.02C27.5982 21 27.4448 20.98 27.3115 20.96C27.3648 21.4 27.5215 21.7367 27.7815 21.97C28.0415 22.2033 28.3748 22.32 28.7815 22.32C29.1148 22.32 29.4115 22.2767 29.6715 22.19C29.9315 22.1033 30.1515 22.0167 30.3315 21.93L30.4115 22.73C30.2115 22.8233 29.9582 22.9133 29.6515 23C29.3448 23.08 29.0048 23.12 28.6315 23.12ZM29.1315 18.44C28.8182 18.44 28.5348 18.52 28.2815 18.68C28.0282 18.8333 27.8182 19.0467 27.6515 19.32C27.4915 19.5867 27.3848 19.8933 27.3315 20.24C27.4848 20.2667 27.6382 20.29 27.7915 20.31C27.9515 20.3233 28.1248 20.33 28.3115 20.33C28.8715 20.33 29.3148 20.2533 29.6415 20.1C29.9682 19.94 30.1315 19.67 30.1315 19.29C30.1315 19.0567 30.0382 18.8567 29.8515 18.69C29.6715 18.5233 29.4315 18.44 29.1315 18.44ZM32.4973 23L31.7173 17.87L32.5873 17.75L33.1773 22L35.0673 18.17H36.0173L36.5373 22L38.6373 17.75L39.3773 18.13L36.8873 23H35.8973L35.3773 19.18L33.4873 23H32.4973ZM41.8157 22.63L45.6557 16H46.7257L48.2557 22.89L47.3457 23.1L46.9257 21.1H43.6857L42.5757 23.08L41.8157 22.63ZM44.1357 20.3H46.7557L46.0457 16.93L44.1357 20.3ZM50.1866 21.2C50.1732 21.2867 50.1632 21.3667 50.1566 21.44C50.1499 21.5067 50.1466 21.5667 50.1466 21.62C50.1466 21.8467 50.2132 22.0233 50.3466 22.15C50.4866 22.2767 50.6699 22.34 50.8966 22.34C51.0099 22.34 51.1232 22.3267 51.2366 22.3C51.3499 22.2733 51.4532 22.2367 51.5466 22.19L51.6366 22.92C51.5166 22.98 51.3766 23.0267 51.2166 23.06C51.0566 23.1 50.8832 23.12 50.6966 23.12C50.2966 23.12 49.9532 23.0067 49.6666 22.78C49.3866 22.5467 49.2466 22.1967 49.2466 21.73C49.2466 21.5567 49.2599 21.3867 49.2866 21.22L50.2666 15.6H51.1666L50.1866 21.2ZM57.4178 19.6C57.4178 20.1 57.3311 20.5633 57.1578 20.99C56.9845 21.4167 56.7378 21.79 56.4178 22.11C56.1045 22.43 55.7311 22.68 55.2978 22.86C54.8645 23.0333 54.3911 23.12 53.8778 23.12C53.5711 23.12 53.2878 23.09 53.0278 23.03C52.7678 22.9767 52.5511 22.9067 52.3778 22.82L53.6478 15.6H54.5478L53.9778 18.85C54.1711 18.4967 54.4178 18.2133 54.7178 18C55.0245 17.7867 55.3678 17.68 55.7478 17.68C56.0678 17.68 56.3511 17.76 56.5978 17.92C56.8511 18.08 57.0511 18.3067 57.1978 18.6C57.3445 18.8867 57.4178 19.22 57.4178 19.6ZM55.5178 18.46C55.2778 18.46 55.0311 18.5433 54.7778 18.71C54.5245 18.8767 54.2911 19.1567 54.0778 19.55C53.8645 19.9367 53.6978 20.4633 53.5778 21.13L53.3778 22.24C53.4845 22.2667 53.5945 22.2867 53.7078 22.3C53.8278 22.3133 53.9545 22.32 54.0878 22.32C54.5478 22.32 54.9578 22.2067 55.3178 21.98C55.6845 21.7467 55.9711 21.4333 56.1778 21.04C56.3911 20.6467 56.4978 20.2067 56.4978 19.72C56.4978 19.3333 56.4078 19.0267 56.2278 18.8C56.0478 18.5733 55.8111 18.46 55.5178 18.46ZM59.6802 23.12C59.4136 23.12 59.1669 23.06 58.9402 22.94C58.7202 22.82 58.5436 22.6533 58.4102 22.44C58.2769 22.22 58.2102 21.96 58.2102 21.66C58.2102 21.5733 58.2136 21.4867 58.2202 21.4C58.2269 21.3067 58.2369 21.21 58.2502 21.11L58.8202 17.8H59.7202L59.1402 21.09C59.1336 21.1567 59.1269 21.2167 59.1202 21.27C59.1136 21.3167 59.1102 21.37 59.1102 21.43C59.1102 21.73 59.1969 21.9533 59.3702 22.1C59.5436 22.2467 59.7469 22.32 59.9802 22.32C60.2336 22.32 60.4802 22.2433 60.7202 22.09C60.9669 21.93 61.1836 21.7033 61.3702 21.41C61.5569 21.1167 61.6869 20.7633 61.7602 20.35L62.2102 17.8H63.1102L62.4502 21.59C62.4436 21.6233 62.4369 21.6633 62.4302 21.71C62.4302 21.75 62.4302 21.7933 62.4302 21.84C62.4302 22.0267 62.4836 22.16 62.5902 22.24C62.6969 22.3133 62.8369 22.35 63.0102 22.35L62.7002 23.05C62.3402 23.05 62.0636 22.9633 61.8702 22.79C61.6836 22.61 61.5902 22.3333 61.5902 21.96V21.87C61.1036 22.7033 60.4669 23.12 59.6802 23.12ZM70.4313 18.47C70.2113 18.47 69.9713 18.5533 69.7113 18.72C69.4513 18.8867 69.2146 19.1467 69.0013 19.5C68.7879 19.8467 68.6313 20.2967 68.5312 20.85L68.1513 23H67.2513L67.8213 19.89C67.8546 19.73 67.8746 19.6133 67.8813 19.54C67.8879 19.46 67.8913 19.3867 67.8913 19.32C67.8913 19.06 67.8146 18.8533 67.6613 18.7C67.5146 18.5467 67.3213 18.47 67.0813 18.47C66.8479 18.47 66.6013 18.5567 66.3413 18.73C66.0813 18.9033 65.8446 19.1733 65.6313 19.54C65.4179 19.9 65.2613 20.3633 65.1613 20.93L64.8013 23H63.9013L64.8113 17.8H65.6813L65.4613 19C65.6613 18.6 65.9313 18.28 66.2713 18.04C66.6179 17.8 66.9746 17.68 67.3413 17.68C67.7546 17.68 68.0879 17.8067 68.3413 18.06C68.5946 18.3067 68.7379 18.62 68.7713 19C68.9979 18.5867 69.2746 18.2633 69.6013 18.03C69.9346 17.7967 70.2946 17.68 70.6813 17.68C71.1279 17.68 71.4813 17.82 71.7413 18.1C72.0079 18.3733 72.1413 18.71 72.1413 19.11C72.1413 19.2767 72.1213 19.4867 72.0813 19.74L71.5013 23H70.6013L71.1713 19.89C71.2046 19.73 71.2246 19.6133 71.2313 19.54C71.2379 19.46 71.2413 19.3867 71.2413 19.32C71.2413 19.06 71.1646 18.8533 71.0113 18.7C70.8646 18.5467 70.6713 18.47 70.4313 18.47Z" fill="#FBFBFB"/>
<path d="M21.08 88.004C21.4787 87.926 21.8643 87.8653 22.237 87.822C22.6097 87.77 23.0343 87.744 23.511 87.744C24.213 87.744 24.7893 87.8523 25.24 88.069C25.6993 88.277 26.0417 88.5543 26.267 88.901C26.4923 89.239 26.605 89.603 26.605 89.993C26.605 90.5823 26.4403 91.0633 26.111 91.436C25.7817 91.8 25.2963 92.0773 24.655 92.268C25.1403 92.45 25.539 92.71 25.851 93.048C26.163 93.386 26.319 93.8237 26.319 94.361C26.319 94.985 26.1327 95.505 25.76 95.921C25.3873 96.337 24.8933 96.649 24.278 96.857C23.6713 97.0563 23.0127 97.156 22.302 97.156C21.6867 97.156 21.1493 97.1083 20.69 97.013C20.2307 96.9263 19.8493 96.8353 19.546 96.74L21.08 88.004ZM23.459 88.719C23.1903 88.719 22.952 88.7277 22.744 88.745C22.536 88.7623 22.3453 88.7883 22.172 88.823L21.639 91.826H22.913C23.7537 91.826 24.3777 91.6613 24.785 91.332C25.1923 90.994 25.396 90.604 25.396 90.162C25.396 89.7547 25.2313 89.4123 24.902 89.135C24.5813 88.8577 24.1003 88.719 23.459 88.719ZM21.47 92.788L20.924 95.947C21.3833 96.0683 21.873 96.129 22.393 96.129C23.2423 96.129 23.8967 95.9687 24.356 95.648C24.824 95.3187 25.058 94.9027 25.058 94.4C25.058 94.1053 24.9757 93.8367 24.811 93.594C24.6463 93.3513 24.382 93.1563 24.018 93.009C23.6627 92.8617 23.1903 92.788 22.601 92.788H21.47ZM29.5454 89.083C29.3028 89.083 29.1164 89.0137 28.9864 88.875C28.8651 88.7277 28.8044 88.5587 28.8044 88.368C28.8044 88.0907 28.8911 87.8697 29.0644 87.705C29.2378 87.5317 29.4544 87.445 29.7144 87.445C29.9571 87.445 30.1391 87.5187 30.2604 87.666C30.3904 87.8047 30.4554 87.9693 30.4554 88.16C30.4554 88.4287 30.3688 88.6497 30.1954 88.823C30.0221 88.9963 29.8054 89.083 29.5454 89.083ZM28.6744 97H27.5044L28.6874 90.24H29.8574L28.6744 97ZM32.2476 94.66C32.2303 94.7727 32.2173 94.8767 32.2086 94.972C32.1999 95.0587 32.1956 95.1367 32.1956 95.206C32.1956 95.5007 32.2823 95.7303 32.4556 95.895C32.6376 96.0597 32.8759 96.142 33.1706 96.142C33.3179 96.142 33.4653 96.1247 33.6126 96.09C33.7599 96.0553 33.8943 96.0077 34.0156 95.947L34.1326 96.896C33.9766 96.974 33.7946 97.0347 33.5866 97.078C33.3786 97.13 33.1533 97.156 32.9106 97.156C32.3906 97.156 31.9443 97.0087 31.5716 96.714C31.2076 96.4107 31.0256 95.9557 31.0256 95.349C31.0256 95.1237 31.0429 94.9027 31.0776 94.686L32.3516 87.38H33.5216L32.2476 94.66ZM36.3228 94.66C36.3055 94.7727 36.2925 94.8767 36.2838 94.972C36.2751 95.0587 36.2708 95.1367 36.2708 95.206C36.2708 95.5007 36.3575 95.7303 36.5308 95.895C36.7128 96.0597 36.9511 96.142 37.2458 96.142C37.3931 96.142 37.5405 96.1247 37.6878 96.09C37.8351 96.0553 37.9695 96.0077 38.0908 95.947L38.2078 96.896C38.0518 96.974 37.8698 97.0347 37.6618 97.078C37.4538 97.13 37.2285 97.156 36.9858 97.156C36.4658 97.156 36.0195 97.0087 35.6468 96.714C35.2828 96.4107 35.1008 95.9557 35.1008 95.349C35.1008 95.1237 35.1181 94.9027 35.1528 94.686L36.4268 87.38H37.5968L36.3228 94.66ZM41.2124 89.083C40.9698 89.083 40.7834 89.0137 40.6534 88.875C40.5321 88.7277 40.4714 88.5587 40.4714 88.368C40.4714 88.0907 40.5581 87.8697 40.7314 87.705C40.9048 87.5317 41.1214 87.445 41.3814 87.445C41.6241 87.445 41.8061 87.5187 41.9274 87.666C42.0574 87.8047 42.1224 87.9693 42.1224 88.16C42.1224 88.4287 42.0358 88.6497 41.8624 88.823C41.6891 88.9963 41.4724 89.083 41.2124 89.083ZM40.3414 97H39.1714L40.3544 90.24H41.5244L40.3414 97ZM45.4096 97.156C44.8376 97.156 44.3306 97.0347 43.8886 96.792C43.4553 96.5407 43.1129 96.1853 42.8616 95.726C42.6189 95.258 42.4976 94.7077 42.4976 94.075C42.4976 93.3557 42.6449 92.6927 42.9396 92.086C43.2429 91.4793 43.6676 90.994 44.2136 90.63C44.7683 90.266 45.4139 90.084 46.1506 90.084C46.6533 90.084 47.0779 90.1793 47.4246 90.37C47.7799 90.5607 48.0529 90.8077 48.2436 91.111C48.4343 91.4143 48.5296 91.7393 48.5296 92.086C48.5296 92.5627 48.4169 92.957 48.1916 93.269C47.9663 93.581 47.6759 93.8237 47.3206 93.997C46.9653 94.1617 46.5796 94.2787 46.1636 94.348C45.7563 94.4173 45.3663 94.452 44.9936 94.452C44.7596 94.452 44.5256 94.4433 44.2916 94.426C44.0663 94.4 43.8669 94.374 43.6936 94.348C43.7629 94.92 43.9666 95.3577 44.3046 95.661C44.6426 95.9643 45.0759 96.116 45.6046 96.116C46.0379 96.116 46.4236 96.0597 46.7616 95.947C47.0996 95.8343 47.3856 95.7217 47.6196 95.609L47.7236 96.649C47.4636 96.7703 47.1343 96.8873 46.7356 97C46.3369 97.104 45.8949 97.156 45.4096 97.156ZM46.0596 91.072C45.6523 91.072 45.2839 91.176 44.9546 91.384C44.6253 91.5833 44.3523 91.8607 44.1356 92.216C43.9276 92.5627 43.7889 92.9613 43.7196 93.412C43.9189 93.4467 44.1183 93.477 44.3176 93.503C44.5256 93.5203 44.7509 93.529 44.9936 93.529C45.7216 93.529 46.2979 93.4293 46.7226 93.23C47.1473 93.022 47.3596 92.671 47.3596 92.177C47.3596 91.8737 47.2383 91.6137 46.9956 91.397C46.7616 91.1803 46.4496 91.072 46.0596 91.072ZM54.7876 87.9H60.1826L60.0006 88.966H55.8276L55.3466 91.735H58.9216L58.7396 92.775H55.1646L54.6056 95.934H58.7656L58.5836 97H53.1886L54.7876 87.9ZM62.0835 89.083C61.8409 89.083 61.6545 89.0137 61.5245 88.875C61.4032 88.7277 61.3425 88.5587 61.3425 88.368C61.3425 88.0907 61.4292 87.8697 61.6025 87.705C61.7759 87.5317 61.9925 87.445 62.2525 87.445C62.4952 87.445 62.6772 87.5187 62.7985 87.666C62.9285 87.8047 62.9935 87.9693 62.9935 88.16C62.9935 88.4287 62.9069 88.6497 62.7335 88.823C62.5602 88.9963 62.3435 89.083 62.0835 89.083ZM61.2125 97H60.0425L61.2255 90.24H62.3955L61.2125 97ZM64.7857 94.66C64.7684 94.7727 64.7554 94.8767 64.7467 94.972C64.738 95.0587 64.7337 95.1367 64.7337 95.206C64.7337 95.5007 64.8204 95.7303 64.9937 95.895C65.1757 96.0597 65.414 96.142 65.7087 96.142C65.856 96.142 66.0034 96.1247 66.1507 96.09C66.298 96.0553 66.4324 96.0077 66.5537 95.947L66.6707 96.896C66.5147 96.974 66.3327 97.0347 66.1247 97.078C65.9167 97.13 65.6914 97.156 65.4487 97.156C64.9287 97.156 64.4824 97.0087 64.1097 96.714C63.7457 96.4107 63.5637 95.9557 63.5637 95.349C63.5637 95.1237 63.581 94.9027 63.6157 94.686L64.8897 87.38H66.0597L64.7857 94.66ZM69.6753 89.083C69.4327 89.083 69.2463 89.0137 69.1163 88.875C68.995 88.7277 68.9343 88.5587 68.9343 88.368C68.9343 88.0907 69.021 87.8697 69.1943 87.705C69.3677 87.5317 69.5843 87.445 69.8443 87.445C70.087 87.445 70.269 87.5187 70.3903 87.666C70.5203 87.8047 70.5853 87.9693 70.5853 88.16C70.5853 88.4287 70.4987 88.6497 70.3253 88.823C70.152 88.9963 69.9353 89.083 69.6753 89.083ZM68.8043 97H67.6343L68.8173 90.24H69.9873L68.8043 97ZM75.6925 91.709C75.4412 91.5357 75.1595 91.384 74.8475 91.254C74.5442 91.124 74.1975 91.059 73.8075 91.059C73.4002 91.059 73.0838 91.1283 72.8585 91.267C72.6332 91.4057 72.5205 91.5877 72.5205 91.813C72.5205 91.943 72.5552 92.0687 72.6245 92.19C72.7025 92.3027 72.8368 92.424 73.0275 92.554C73.2268 92.684 73.5042 92.84 73.8595 93.022C74.4488 93.3167 74.8865 93.6243 75.1725 93.945C75.4585 94.257 75.6015 94.6427 75.6015 95.102C75.6015 95.5613 75.4802 95.9427 75.2375 96.246C74.9948 96.5493 74.6698 96.779 74.2625 96.935C73.8552 97.0823 73.3958 97.156 72.8845 97.156C72.3558 97.156 71.8878 97.091 71.4805 96.961C71.0818 96.8223 70.7352 96.6447 70.4405 96.428L71.1035 95.466C71.3375 95.6567 71.6148 95.817 71.9355 95.947C72.2562 96.077 72.6072 96.142 72.9885 96.142C73.4218 96.142 73.7642 96.0597 74.0155 95.895C74.2668 95.7303 74.3925 95.5267 74.3925 95.284C74.3925 95.0587 74.2972 94.8507 74.1065 94.66C73.9245 94.4693 73.5648 94.2397 73.0275 93.971C72.5942 93.7543 72.2562 93.5463 72.0135 93.347C71.7708 93.139 71.6018 92.918 71.5065 92.684C71.4112 92.45 71.3635 92.1813 71.3635 91.878C71.3635 91.5313 71.4675 91.2237 71.6755 90.955C71.8835 90.6863 72.1738 90.474 72.5465 90.318C72.9192 90.162 73.3482 90.084 73.8335 90.084C74.3188 90.084 74.7522 90.149 75.1335 90.279C75.5235 90.4003 75.8658 90.5477 76.1605 90.721L75.6925 91.709ZM82.0539 92.216C82.0539 91.8867 81.9542 91.6223 81.7549 91.423C81.5642 91.215 81.3129 91.111 81.0009 91.111C80.6975 91.111 80.3639 91.2193 79.9999 91.436C79.6445 91.6527 79.3195 91.9907 79.0249 92.45C78.7302 92.9093 78.5179 93.503 78.3879 94.231L77.9069 97H76.7369L78.4269 87.38H79.5969L78.8429 91.657C79.1115 91.1803 79.4625 90.799 79.8959 90.513C80.3379 90.227 80.8015 90.084 81.2869 90.084C81.8849 90.084 82.3572 90.266 82.7039 90.63C83.0592 90.9853 83.2369 91.423 83.2369 91.943C83.2369 92.1597 83.2109 92.4327 83.1589 92.762L82.4179 97H81.2479L81.9629 92.957C82.0062 92.749 82.0322 92.5973 82.0409 92.502C82.0495 92.398 82.0539 92.3027 82.0539 92.216Z" fill="#FBFBFB"/>
<path d="M29.013 40.939H22.667L21.603 47H19.798L22.135 33.7H23.94L22.933 39.381H29.279L30.286 33.7H32.091L29.754 47H27.949L29.013 40.939ZM33.0253 43.105C33.0253 41.8763 33.2913 40.7997 33.8233 39.875C34.3679 38.9377 35.1153 38.2093 36.0653 37.69C37.0153 37.158 38.0983 36.892 39.3143 36.892C40.0616 36.892 40.7139 36.968 41.2713 37.12C41.8413 37.272 42.3099 37.424 42.6773 37.576L41.4803 44.321C41.4676 44.3843 41.4549 44.4603 41.4423 44.549C41.4423 44.625 41.4423 44.7073 41.4423 44.796C41.4423 45.1507 41.5436 45.404 41.7463 45.556C41.9489 45.6953 42.2149 45.765 42.5443 45.765L41.9553 47.095C41.2713 47.095 40.7456 46.9303 40.3783 46.601C40.0236 46.259 39.8463 45.7333 39.8463 45.024C39.4916 45.632 39.0419 46.1513 38.4973 46.582C37.9653 47.0127 37.3383 47.228 36.6163 47.228C35.9956 47.228 35.4129 47.0633 34.8683 46.734C34.3236 46.392 33.8803 45.917 33.5383 45.309C33.1963 44.6883 33.0253 43.9537 33.0253 43.105ZM40.7963 38.583C40.5556 38.507 40.3023 38.45 40.0363 38.412C39.7829 38.3613 39.4726 38.336 39.1053 38.336C38.2313 38.336 37.4713 38.5323 36.8253 38.925C36.1793 39.3177 35.6726 39.8623 35.3053 40.559C34.9506 41.243 34.7733 42.022 34.7733 42.896C34.7733 43.504 34.8809 44.017 35.0963 44.435C35.3243 44.853 35.6156 45.1697 35.9703 45.385C36.3249 45.6003 36.6923 45.708 37.0723 45.708C37.5916 45.708 38.0666 45.5307 38.4973 45.176C38.9279 44.8213 39.2953 44.3273 39.5993 43.694C39.9159 43.0607 40.1439 42.3387 40.2833 41.528L40.7963 38.583ZM45.4094 37.12C46.7267 37.12 47.3854 37.69 47.3854 38.83V39.229C47.7527 38.545 48.2277 37.9877 48.8104 37.557C49.3931 37.1137 50.0707 36.892 50.8434 36.892C51.5274 36.892 52.1227 37.0693 52.6294 37.424C53.1361 37.766 53.5224 38.2473 53.7884 38.868C54.0671 39.476 54.2064 40.1853 54.2064 40.996C54.2064 41.9333 54.0671 42.7883 53.7884 43.561C53.5224 44.321 53.1551 44.9797 52.6864 45.537C52.2177 46.0817 51.6921 46.4997 51.1094 46.791C50.5267 47.0823 49.9251 47.228 49.3044 47.228C48.6964 47.228 48.1264 47.076 47.5944 46.772C47.0751 46.468 46.6697 46.0943 46.3784 45.651L45.4094 51.18H43.6994L45.6754 39.875C45.7134 39.6597 45.7324 39.4823 45.7324 39.343C45.7324 38.7477 45.4221 38.45 44.8014 38.45L45.4094 37.12ZM49.1524 45.708C49.7477 45.708 50.2924 45.518 50.7864 45.138C51.2931 44.7453 51.6984 44.207 52.0024 43.523C52.3064 42.839 52.4584 42.0537 52.4584 41.167C52.4584 40.3057 52.2621 39.628 51.8694 39.134C51.4767 38.6273 50.9637 38.374 50.3304 38.374C49.8237 38.374 49.3361 38.5323 48.8674 38.849C48.4114 39.1657 48.0187 39.609 47.6894 40.179C47.3601 40.749 47.1257 41.4203 46.9864 42.193L46.6444 44.112C46.9231 44.6187 47.2841 45.0113 47.7274 45.29C48.1707 45.5687 48.6457 45.708 49.1524 45.708ZM56.7463 37.12C58.0637 37.12 58.7223 37.69 58.7223 38.83V39.229C59.0897 38.545 59.5647 37.9877 60.1473 37.557C60.73 37.1137 61.4077 36.892 62.1803 36.892C62.8643 36.892 63.4597 37.0693 63.9663 37.424C64.473 37.766 64.8593 38.2473 65.1253 38.868C65.404 39.476 65.5433 40.1853 65.5433 40.996C65.5433 41.9333 65.404 42.7883 65.1253 43.561C64.8593 44.321 64.492 44.9797 64.0233 45.537C63.5547 46.0817 63.029 46.4997 62.4463 46.791C61.8637 47.0823 61.262 47.228 60.6413 47.228C60.0333 47.228 59.4633 47.076 58.9313 46.772C58.412 46.468 58.0067 46.0943 57.7153 45.651L56.7463 51.18H55.0363L57.0123 39.875C57.0503 39.6597 57.0693 39.4823 57.0693 39.343C57.0693 38.7477 56.759 38.45 56.1383 38.45L56.7463 37.12ZM60.4893 45.708C61.0847 45.708 61.6293 45.518 62.1233 45.138C62.63 44.7453 63.0353 44.207 63.3393 43.523C63.6433 42.839 63.7953 42.0537 63.7953 41.167C63.7953 40.3057 63.599 39.628 63.2063 39.134C62.8137 38.6273 62.3007 38.374 61.6673 38.374C61.1607 38.374 60.673 38.5323 60.2043 38.849C59.7483 39.1657 59.3557 39.609 59.0263 40.179C58.697 40.749 58.4627 41.4203 58.3233 42.193L57.9813 44.112C58.26 44.6187 58.621 45.0113 59.0643 45.29C59.5077 45.5687 59.9827 45.708 60.4893 45.708ZM70.019 35.429C69.6643 35.429 69.392 35.3277 69.202 35.125C69.0247 34.9097 68.936 34.6627 68.936 34.384C68.936 33.9787 69.0627 33.6557 69.316 33.415C69.5693 33.1617 69.886 33.035 70.266 33.035C70.6207 33.035 70.8867 33.1427 71.064 33.358C71.254 33.5607 71.349 33.8013 71.349 34.08C71.349 34.4727 71.2223 34.7957 70.969 35.049C70.7157 35.3023 70.399 35.429 70.019 35.429ZM68.746 47H67.036L68.765 37.12H70.475L68.746 47ZM76.1533 47.228C75.3173 47.228 74.5763 47.0507 73.9303 46.696C73.297 46.3287 72.7967 45.8093 72.4293 45.138C72.0747 44.454 71.8973 43.6497 71.8973 42.725C71.8973 41.6737 72.1127 40.7047 72.5433 39.818C72.9867 38.9313 73.6073 38.222 74.4053 37.69C75.216 37.158 76.1597 36.892 77.2363 36.892C77.971 36.892 78.5917 37.0313 79.0983 37.31C79.6177 37.5887 80.0167 37.9497 80.2953 38.393C80.574 38.8363 80.7133 39.3113 80.7133 39.818C80.7133 40.5147 80.5487 41.091 80.2193 41.547C79.89 42.003 79.4657 42.3577 78.9463 42.611C78.427 42.8517 77.8633 43.0227 77.2553 43.124C76.66 43.2253 76.09 43.276 75.5453 43.276C75.2033 43.276 74.8613 43.2633 74.5193 43.238C74.19 43.2 73.8987 43.162 73.6453 43.124C73.7467 43.96 74.0443 44.5997 74.5383 45.043C75.0323 45.4863 75.6657 45.708 76.4383 45.708C77.0717 45.708 77.6353 45.6257 78.1293 45.461C78.6233 45.2963 79.0413 45.1317 79.3833 44.967L79.5353 46.487C79.1553 46.6643 78.674 46.8353 78.0913 47C77.5087 47.152 76.8627 47.228 76.1533 47.228ZM77.1033 38.336C76.508 38.336 75.9697 38.488 75.4883 38.792C75.007 39.0833 74.608 39.4887 74.2913 40.008C73.9873 40.5147 73.7847 41.0973 73.6833 41.756C73.9747 41.8067 74.266 41.851 74.5573 41.889C74.8613 41.9143 75.1907 41.927 75.5453 41.927C76.6093 41.927 77.4517 41.7813 78.0723 41.49C78.693 41.186 79.0033 40.673 79.0033 39.951C79.0033 39.5077 78.826 39.1277 78.4713 38.811C78.1293 38.4943 77.6733 38.336 77.1033 38.336ZM83.2703 39.894C83.283 39.8307 83.2893 39.761 83.2893 39.685C83.302 39.5963 83.3083 39.5077 83.3083 39.419C83.3083 39.0643 83.207 38.8173 83.0043 38.678C82.8017 38.526 82.5357 38.45 82.2063 38.45L82.7953 37.12C83.4667 37.12 83.9797 37.2847 84.3343 37.614C84.7017 37.9307 84.8853 38.4057 84.8853 39.039V39.419C85.2527 38.5197 85.7213 37.8737 86.2913 37.481C86.874 37.0883 87.5327 36.892 88.2673 36.892C88.5587 36.892 88.8057 36.9173 89.0083 36.968C89.2237 37.006 89.401 37.0567 89.5403 37.12L88.7803 38.792C88.6283 38.7287 88.47 38.6843 88.3053 38.659C88.1407 38.6337 87.9507 38.621 87.7353 38.621C87.2793 38.621 86.8233 38.7857 86.3673 39.115C85.924 39.4317 85.5187 39.9637 85.1513 40.711C84.7967 41.4583 84.5053 42.4843 84.2773 43.789L83.7263 47H82.0163L83.2703 39.894ZM96.1728 33.7H106.148L105.863 35.296H101.778L99.7258 47H97.9208L99.9728 35.296H95.8878L96.1728 33.7ZM113.419 40.008C113.419 39.5267 113.274 39.1403 112.982 38.849C112.704 38.545 112.336 38.393 111.88 38.393C111.437 38.393 110.949 38.5513 110.417 38.868C109.898 39.1847 109.423 39.6787 108.992 40.35C108.562 41.0213 108.251 41.889 108.061 42.953L107.358 47H105.648L108.118 32.94H109.828L108.726 39.191C109.119 38.4943 109.632 37.937 110.265 37.519C110.911 37.101 111.589 36.892 112.298 36.892C113.172 36.892 113.863 37.158 114.369 37.69C114.889 38.2093 115.148 38.849 115.148 39.609C115.148 39.9257 115.11 40.3247 115.034 40.806L113.951 47H112.241L113.286 41.091C113.35 40.787 113.388 40.5653 113.4 40.426C113.413 40.274 113.419 40.1347 113.419 40.008ZM116.837 43.105C116.837 41.8763 117.103 40.7997 117.635 39.875C118.179 38.9377 118.927 38.2093 119.877 37.69C120.827 37.158 121.91 36.892 123.126 36.892C123.873 36.892 124.525 36.968 125.083 37.12C125.653 37.272 126.121 37.424 126.489 37.576L125.292 44.321C125.279 44.3843 125.266 44.4603 125.254 44.549C125.254 44.625 125.254 44.7073 125.254 44.796C125.254 45.1507 125.355 45.404 125.558 45.556C125.76 45.6953 126.026 45.765 126.356 45.765L125.767 47.095C125.083 47.095 124.557 46.9303 124.19 46.601C123.835 46.259 123.658 45.7333 123.658 45.024C123.303 45.632 122.853 46.1513 122.309 46.582C121.777 47.0127 121.15 47.228 120.428 47.228C119.807 47.228 119.224 47.0633 118.68 46.734C118.135 46.392 117.692 45.917 117.35 45.309C117.008 44.6883 116.837 43.9537 116.837 43.105ZM124.608 38.583C124.367 38.507 124.114 38.45 123.848 38.412C123.594 38.3613 123.284 38.336 122.917 38.336C122.043 38.336 121.283 38.5323 120.637 38.925C119.991 39.3177 119.484 39.8623 119.117 40.559C118.762 41.243 118.585 42.022 118.585 42.896C118.585 43.504 118.692 44.017 118.908 44.435C119.136 44.853 119.427 45.1697 119.782 45.385C120.136 45.6003 120.504 45.708 120.884 45.708C121.403 45.708 121.878 45.5307 122.309 45.176C122.739 44.8213 123.107 44.3273 123.411 43.694C123.727 43.0607 123.955 42.3387 124.095 41.528L124.608 38.583ZM134.294 38.393C133.851 38.393 133.369 38.5577 132.85 38.887C132.331 39.2163 131.849 39.7293 131.406 40.426C130.975 41.11 130.665 41.9903 130.475 43.067L129.791 47H128.081L129.81 37.12H131.463L131.045 39.4C131.438 38.64 131.963 38.032 132.622 37.576C133.293 37.12 133.996 36.892 134.731 36.892C135.592 36.892 136.283 37.158 136.802 37.69C137.321 38.2093 137.581 38.849 137.581 39.609C137.581 39.9257 137.543 40.3247 137.467 40.806L136.384 47H134.674L135.719 41.091C135.782 40.787 135.82 40.5653 135.833 40.426C135.846 40.274 135.852 40.1347 135.852 40.008C135.852 39.514 135.706 39.1213 135.415 38.83C135.136 38.5387 134.763 38.393 134.294 38.393ZM22.135 55.7H30.02L29.754 57.258H23.655L22.952 61.305H28.177L27.911 62.825H22.686L21.869 67.442H27.949L27.683 69H19.798L22.135 55.7ZM29.5184 59.348L31.1334 58.93L33.0904 67.1L37.8214 58.93L39.2084 59.747L33.6604 69H31.8934L29.5184 59.348ZM43.4414 69.228C42.6054 69.228 41.8644 69.0507 41.2184 68.696C40.5851 68.3287 40.0848 67.8093 39.7174 67.138C39.3628 66.454 39.1854 65.6497 39.1854 64.725C39.1854 63.6737 39.4008 62.7047 39.8314 61.818C40.2748 60.9313 40.8954 60.222 41.6934 59.69C42.5041 59.158 43.4478 58.892 44.5244 58.892C45.2591 58.892 45.8798 59.0313 46.3864 59.31C46.9058 59.5887 47.3048 59.9497 47.5834 60.393C47.8621 60.8363 48.0014 61.3113 48.0014 61.818C48.0014 62.5147 47.8368 63.091 47.5074 63.547C47.1781 64.003 46.7538 64.3577 46.2344 64.611C45.7151 64.8517 45.1514 65.0227 44.5434 65.124C43.9481 65.2253 43.3781 65.276 42.8334 65.276C42.4914 65.276 42.1494 65.2633 41.8074 65.238C41.4781 65.2 41.1868 65.162 40.9334 65.124C41.0348 65.96 41.3324 66.5997 41.8264 67.043C42.3204 67.4863 42.9538 67.708 43.7264 67.708C44.3598 67.708 44.9234 67.6257 45.4174 67.461C45.9114 67.2963 46.3294 67.1317 46.6714 66.967L46.8234 68.487C46.4434 68.6643 45.9621 68.8353 45.3794 69C44.7968 69.152 44.1508 69.228 43.4414 69.228ZM44.3914 60.336C43.7961 60.336 43.2578 60.488 42.7764 60.792C42.2951 61.0833 41.8961 61.4887 41.5794 62.008C41.2754 62.5147 41.0728 63.0973 40.9714 63.756C41.2628 63.8067 41.5541 63.851 41.8454 63.889C42.1494 63.9143 42.4788 63.927 42.8334 63.927C43.8974 63.927 44.7398 63.7813 45.3604 63.49C45.9811 63.186 46.2914 62.673 46.2914 61.951C46.2914 61.5077 46.1141 61.1277 45.7594 60.811C45.4174 60.4943 44.9614 60.336 44.3914 60.336ZM50.5584 61.894C50.5711 61.8307 50.5774 61.761 50.5774 61.685C50.5901 61.5963 50.5964 61.5077 50.5964 61.419C50.5964 61.0643 50.4951 60.8173 50.2924 60.678C50.0897 60.526 49.8237 60.45 49.4944 60.45L50.0834 59.12C50.7547 59.12 51.2677 59.2847 51.6224 59.614C51.9897 59.9307 52.1734 60.4057 52.1734 61.039V61.419C52.5407 60.5197 53.0094 59.8737 53.5794 59.481C54.1621 59.0883 54.8207 58.892 55.5554 58.892C55.8467 58.892 56.0937 58.9173 56.2964 58.968C56.5117 59.006 56.6891 59.0567 56.8284 59.12L56.0684 60.792C55.9164 60.7287 55.7581 60.6843 55.5934 60.659C55.4287 60.6337 55.2387 60.621 55.0234 60.621C54.5674 60.621 54.1114 60.7857 53.6554 61.115C53.2121 61.4317 52.8067 61.9637 52.4394 62.711C52.0847 63.4583 51.7934 64.4843 51.5654 65.789L51.0144 69H49.3044L50.5584 61.894Z" fill="#FBFBFB"/>
</g>
<defs>
<radialGradient id="paint0_radial_30_175" cx="0" cy="0" r="1" gradientUnits="userSpaceOnUse" gradientTransform="translate(307.981 40.641) rotate(44.6554) scale(82.2368 83.1472)">
<stop stop-color="white"/>
<stop offset="1" stop-color="#1E1E1E" stop-opacity="0"/>
<stop offset="1" stop-color="#0E0E35" stop-opacity="0"/>
<stop offset="1" stop-color="white" stop-opacity="0"/>
</radialGradient>
<clipPath id="clip0_30_175">
<rect width="334" height="118" rx="30" fill="white"/>
</clipPath>
</defs>
</svg>
