<svg width="175" height="45" viewBox="0 0 175 45" fill="none" xmlns="http://www.w3.org/2000/svg">
<path d="M60.2756 9.81818H67.1023L74.3125 27.4091H74.6193L81.8295 9.81818H88.6562V36H83.2869V18.9588H83.0696L76.294 35.8722H72.6378L65.8622 18.8949H65.6449V36H60.2756V9.81818ZM105.707 27.6392V16.3636H111.153V36H105.924V32.4332H105.72C105.277 33.5838 104.539 34.5085 103.508 35.2074C102.485 35.9062 101.237 36.2557 99.7624 36.2557C98.4499 36.2557 97.2951 35.9574 96.2979 35.3608C95.3008 34.7642 94.521 33.9162 93.9585 32.8168C93.4045 31.7173 93.1232 30.4006 93.1147 28.8665V16.3636H98.5607V27.8949C98.5692 29.054 98.8803 29.9702 99.494 30.6435C100.108 31.3168 100.93 31.6534 101.961 31.6534C102.618 31.6534 103.231 31.5043 103.802 31.206C104.373 30.8991 104.833 30.4474 105.183 29.8509C105.541 29.2543 105.716 28.517 105.707 27.6392ZM115.509 36V16.3636H120.955V36H115.509ZM118.245 13.8324C117.435 13.8324 116.741 13.5639 116.161 13.027C115.59 12.4815 115.305 11.8295 115.305 11.071C115.305 10.321 115.59 9.67756 116.161 9.14062C116.741 8.59517 117.435 8.32244 118.245 8.32244C119.055 8.32244 119.745 8.59517 120.316 9.14062C120.896 9.67756 121.185 10.321 121.185 11.071C121.185 11.8295 120.896 12.4815 120.316 13.027C119.745 13.5639 119.055 13.8324 118.245 13.8324ZM125.216 36V32.7528L134.829 20.8509V20.7102H125.548V16.3636H141.387V19.9048L132.362 31.5128V31.6534H141.72V36H125.216ZM145.884 36V16.3636H151.33V36H145.884ZM148.62 13.8324C147.81 13.8324 147.116 13.5639 146.536 13.027C145.965 12.4815 145.68 11.8295 145.68 11.071C145.68 10.321 145.965 9.67756 146.536 9.14062C147.116 8.59517 147.81 8.32244 148.62 8.32244C149.43 8.32244 150.12 8.59517 150.691 9.14062C151.271 9.67756 151.56 10.321 151.56 11.071C151.56 11.8295 151.271 12.4815 150.691 13.027C150.12 13.5639 149.43 13.8324 148.62 13.8324ZM164.565 36.3835C162.554 36.3835 160.824 35.9574 159.375 35.1051C157.934 34.2443 156.826 33.0511 156.051 31.5256C155.284 30 154.9 28.2443 154.9 26.2585C154.9 24.2472 155.288 22.483 156.064 20.9659C156.848 19.4403 157.96 18.2514 159.4 17.3991C160.841 16.5384 162.554 16.108 164.539 16.108C166.252 16.108 167.752 16.419 169.039 17.0412C170.326 17.6634 171.345 18.5369 172.095 19.6619C172.845 20.7869 173.258 22.108 173.335 23.625H168.196C168.051 22.6449 167.667 21.8565 167.045 21.2599C166.431 20.6548 165.626 20.3523 164.629 20.3523C163.785 20.3523 163.048 20.5824 162.417 21.0426C161.795 21.4943 161.309 22.1548 160.96 23.0241C160.61 23.8935 160.436 24.946 160.436 26.1818C160.436 27.4347 160.606 28.5 160.947 29.3778C161.297 30.2557 161.787 30.9247 162.417 31.3849C163.048 31.8452 163.785 32.0753 164.629 32.0753C165.251 32.0753 165.809 31.9474 166.304 31.6918C166.806 31.4361 167.22 31.0653 167.544 30.5795C167.876 30.0852 168.093 29.4929 168.196 28.8026H173.335C173.25 30.3026 172.841 31.6236 172.108 32.7656C171.383 33.8991 170.382 34.7855 169.103 35.4247C167.825 36.0639 166.312 36.3835 164.565 36.3835Z" fill="#62CD5D"/>
<path fill-rule="evenodd" clip-rule="evenodd" d="M8 0C3.58172 0 0 3.58172 0 8V37C0 41.4183 3.58172 45 8 45H37C41.4183 45 45 41.4183 45 37V8C45 3.58172 41.4183 0 37 0H8ZM16.3272 12.2849C16.0049 11.3523 15.7293 10.5484 15.5171 9.92659V35.1477H10.4651V10.3932L15.0522 8.55838L15.0492 8.5493L15.0447 8.53619L15.0436 8.53287L15.0433 8.53202C15.0433 8.53183 15.0432 8.53173 15.5171 8.37212C15.9909 8.2125 15.9909 8.21258 15.991 8.21276L15.9913 8.21356L15.9924 8.21679L15.9967 8.22972L16.014 8.28098L16.0817 8.48125C16.1412 8.65674 16.2285 8.91423 16.3402 9.242C16.5634 9.89756 16.8839 10.8342 17.2724 11.9582C18.0494 14.2065 19.0983 17.2034 20.1865 20.1997C21.2752 23.1975 22.4008 26.1884 23.3317 28.4272C23.7979 29.5485 24.2107 30.4699 24.5424 31.1066C24.6559 31.3245 24.756 31.5013 24.8418 31.6378C24.9097 31.5092 24.9871 31.3461 25.0734 31.147C25.3464 30.5169 25.6763 29.6036 26.0463 28.4892C26.7852 26.2642 27.6667 23.2916 28.5516 20.3016L28.6149 20.0875C29.4771 17.1739 30.3391 14.2609 31.0662 12.0476C31.4381 10.9154 31.7787 9.95377 32.0691 9.26481C32.2134 8.92254 32.3523 8.63054 32.4835 8.4143C32.5484 8.30723 32.6218 8.20136 32.7044 8.11416C32.7745 8.04022 32.9152 7.90987 33.1228 7.87793L33.1797 7.86918L33.2371 7.87358C33.5148 7.8949 33.6689 8.09193 33.7314 8.18986C33.8031 8.30217 33.8513 8.43314 33.8867 8.55338C33.9592 8.79983 34.0141 9.13102 34.0582 9.51518C34.1472 10.2911 34.2019 11.3794 34.2315 12.664C34.291 15.2381 34.2513 18.6546 34.1723 22.0603C34.0933 25.4678 33.9748 28.8716 33.8761 31.423C33.8267 32.6988 33.7823 33.7618 33.7502 34.5059C33.7341 34.8779 33.7212 35.1703 33.7122 35.3697L33.7024 35.5858C33.7035 35.6081 33.7041 35.6305 33.7041 35.653C33.7041 36.769 32.347 37.6737 30.6729 37.6737C28.9989 37.6737 27.6418 36.769 27.6418 35.653C27.6418 34.5369 28.9989 33.6322 30.6729 33.6322C31.4831 33.6322 32.219 33.8441 32.7628 34.1893C32.7936 33.4688 32.8333 32.5094 32.8768 31.3843C32.9754 28.8358 33.0937 25.4376 33.1726 22.0371C33.2515 18.6349 33.2907 15.2373 33.2318 12.6871C33.2023 11.4097 33.1484 10.3584 33.0647 9.62915C33.0601 9.58917 33.0555 9.55043 33.0508 9.51294C33.0312 9.55776 33.0111 9.60453 32.9906 9.65324C32.7166 10.3032 32.3863 11.2331 32.0162 12.3597C31.2939 14.5585 30.4355 17.4593 29.5709 20.3809L29.5709 20.3812L29.5104 20.5853C28.6271 23.5702 27.7405 26.5604 26.9953 28.8044C26.6234 29.9245 26.2823 30.8723 25.9909 31.5446C25.8464 31.878 25.7059 32.1633 25.5715 32.3721C25.5051 32.4752 25.4272 32.5804 25.3364 32.6655C25.2575 32.7394 25.0945 32.8689 24.863 32.8688C24.6379 32.8688 24.4749 32.7447 24.3975 32.6776C24.3049 32.5972 24.221 32.4964 24.1465 32.3945C23.9956 32.1882 23.8303 31.9041 23.6555 31.5686C23.3035 30.8929 22.8775 29.9396 22.4083 28.8111C21.4684 26.5506 20.3365 23.5423 19.2465 20.541C18.156 17.5381 17.1052 14.5359 16.3272 12.2849ZM25.0529 31.9223L25.0519 31.9214C25.0605 31.9275 25.061 31.9293 25.0529 31.9223ZM33.4368 8.79578C33.4368 8.79599 33.4347 8.79817 33.4306 8.80166C33.4348 8.7973 33.4368 8.79556 33.4368 8.79578Z" fill="#62CD5D"/>
</svg>
